<?xml version="1.0" encoding="UTF-8"?>
<!DOCTYPE svg PUBLIC "-//W3C//DTD SVG 1.1//EN" "http://www.w3.org/Graphics/SVG/1.1/DTD/svg11.dtd">
<svg version="1.1" xmlns="http://www.w3.org/2000/svg" xmlns:xlink="http://www.w3.org/1999/xlink" x="0" y="0" width="128" height="128" viewBox="0, 0, 128, 128">
  <g id="Layer_1">
    <path d="M0,0 L128,0 L128,128 L0,128 L0,0 z" fill="#FF6666"/>
    <path d="M75.544,74.072 L35.848,74.072 L25.889,41.128 L42.023,41.128 C43.525,47.283 49.085,51.865 55.696,51.865 C62.307,51.865 67.867,47.283 69.369,41.128 L85.503,41.128 L75.544,74.072 z M55.696,26.392 C61.981,26.392 67.095,31.506 67.095,37.791 C67.095,44.077 61.981,49.19 55.696,49.19 C49.41,49.19 44.297,44.077 44.297,37.791 C44.297,31.506 49.41,26.392 55.696,26.392 z M86.7,90.051 C86.7,92.27 84.898,94.075 82.683,94.075 C80.468,94.075 78.666,92.27 78.666,90.051 C78.666,87.915 80.335,86.164 82.435,86.035 C82.517,86.03 82.6,86.026 82.683,86.026 C82.713,86.026 82.743,86.028 82.773,86.028 C84.946,86.077 86.7,87.862 86.7,90.051 z M34.855,94.075 C32.64,94.075 30.838,92.27 30.838,90.051 C30.838,87.869 32.58,86.089 34.744,86.029 C34.781,86.028 34.818,86.026 34.855,86.026 C34.939,86.026 35.021,86.03 35.103,86.035 C37.203,86.164 38.872,87.915 38.872,90.051 C38.872,92.27 37.07,94.075 34.855,94.075 z M110.21,23.763 C110.03,23.047 109.304,22.611 108.588,22.791 L90.346,27.358 C89.889,27.472 89.527,27.818 89.39,28.268 L86.312,38.454 L69.754,38.454 C69.764,38.234 69.77,38.013 69.77,37.791 C69.77,30.031 63.456,23.717 55.696,23.717 C47.936,23.717 41.622,30.031 41.622,37.791 C41.622,38.013 41.628,38.234 41.638,38.454 L24.087,38.454 C23.664,38.454 23.266,38.654 23.014,38.994 C22.761,39.333 22.685,39.773 22.807,40.178 L33.575,75.797 C33.746,76.361 34.265,76.747 34.855,76.747 L75.634,76.747 L80.15,83.36 L35.188,83.36 C35.078,83.355 34.967,83.351 34.855,83.351 C31.165,83.351 28.164,86.357 28.164,90.051 C28.164,93.744 31.165,96.75 34.855,96.75 C38.545,96.75 41.546,93.744 41.546,90.051 C41.546,88.545 41.048,87.154 40.207,86.035 L77.331,86.035 C76.49,87.154 75.992,88.545 75.992,90.051 C75.992,93.744 78.993,96.75 82.683,96.75 C86.373,96.75 89.374,93.744 89.374,90.051 C89.374,86.603 86.759,83.756 83.411,83.392 L77.942,75.383 L91.731,29.768 L109.237,25.385 C109.954,25.206 110.389,24.48 110.21,23.763" fill="#FFFFFE"/>
    <path d="M49.624,38.874 L61.768,38.874 C62.366,38.874 62.851,38.389 62.851,37.791 C62.851,37.193 62.366,36.709 61.768,36.709 L49.624,36.709 C49.026,36.709 48.541,37.193 48.541,37.791 C48.541,38.389 49.026,38.874 49.624,38.874" fill="#FFFFFE"/>
    <path d="M28.72,112.856 L26.836,110.156 C27.928,109.688 28.564,108.764 28.564,107.504 C28.564,105.62 27.16,104.456 24.916,104.456 L21.28,104.456 L21.28,112.856 L23.224,112.856 L23.224,110.516 L24.916,110.516 L25.012,110.516 L26.632,112.856 z M26.596,107.504 C26.596,108.416 25.996,108.968 24.808,108.968 L23.224,108.968 L23.224,106.04 L24.808,106.04 C25.996,106.04 26.596,106.58 26.596,107.504 z" fill="#FFFFFE"/>
    <path d="M36.292,109.652 C36.292,107.576 34.828,106.304 32.932,106.304 C30.964,106.304 29.488,107.696 29.488,109.628 C29.488,111.548 30.94,112.952 33.172,112.952 C34.336,112.952 35.236,112.592 35.836,111.908 L34.84,110.828 C34.396,111.248 33.904,111.452 33.22,111.452 C32.236,111.452 31.552,110.96 31.372,110.156 L36.256,110.156 C36.268,110 36.292,109.796 36.292,109.652 z M32.944,107.72 C33.784,107.72 34.396,108.248 34.528,109.064 L31.348,109.064 C31.48,108.236 32.092,107.72 32.944,107.72 z" fill="#FFFFFE"/>
    <path d="M42.244,103.952 L42.244,107.084 C41.776,106.556 41.104,106.304 40.312,106.304 C38.488,106.304 37.084,107.6 37.084,109.628 C37.084,111.656 38.488,112.952 40.312,112.952 C41.176,112.952 41.86,112.676 42.328,112.112 L42.328,112.856 L44.116,112.856 L44.116,103.952 z M40.636,111.416 C39.7,111.416 38.98,110.744 38.98,109.628 C38.98,108.512 39.7,107.84 40.636,107.84 C41.56,107.84 42.28,108.512 42.28,109.628 C42.28,110.744 41.56,111.416 40.636,111.416 z" fill="#FFFFFE"/>
    <path d="M50.476,106.4 L50.476,109.592 C50.476,110.78 49.852,111.332 48.988,111.332 C48.16,111.332 47.68,110.852 47.68,109.772 L47.68,106.4 L45.808,106.4 L45.808,110.048 C45.808,112.04 46.948,112.952 48.568,112.952 C49.36,112.952 50.08,112.652 50.572,112.088 L50.572,112.856 L52.348,112.856 L52.348,106.4 z" fill="#FFFFFE"/>
    <path d="M57.208,112.952 C58.564,112.952 59.632,112.352 60.1,111.32 L58.648,110.528 C58.3,111.152 57.784,111.416 57.196,111.416 C56.248,111.416 55.504,110.756 55.504,109.628 C55.504,108.5 56.248,107.84 57.196,107.84 C57.784,107.84 58.3,108.116 58.648,108.728 L60.1,107.948 C59.632,106.892 58.564,106.304 57.208,106.304 C55.108,106.304 53.608,107.684 53.608,109.628 C53.608,111.572 55.108,112.952 57.208,112.952 z" fill="#FFFFFE"/>
    <path d="M67.42,109.652 C67.42,107.576 65.956,106.304 64.06,106.304 C62.092,106.304 60.616,107.696 60.616,109.628 C60.616,111.548 62.068,112.952 64.3,112.952 C65.464,112.952 66.364,112.592 66.964,111.908 L65.968,110.828 C65.524,111.248 65.032,111.452 64.348,111.452 C63.364,111.452 62.68,110.96 62.5,110.156 L67.384,110.156 C67.396,110 67.42,109.796 67.42,109.652 z M64.072,107.72 C64.912,107.72 65.524,108.248 65.656,109.064 L62.476,109.064 C62.608,108.236 63.22,107.72 64.072,107.72 z" fill="#FFFFFE"/>
    <path d="M74.956,113 C77.356,113 78.52,111.8 78.52,110.396 C78.52,107.312 73.636,108.38 73.636,106.832 C73.636,106.304 74.08,105.872 75.232,105.872 C75.976,105.872 76.78,106.088 77.56,106.532 L78.16,105.056 C77.38,104.564 76.3,104.312 75.244,104.312 C72.856,104.312 71.704,105.5 71.704,106.928 C71.704,110.048 76.588,108.968 76.588,110.54 C76.588,111.056 76.12,111.44 74.968,111.44 C73.96,111.44 72.904,111.08 72.196,110.564 L71.536,112.028 C72.28,112.604 73.624,113 74.956,113 z" fill="#FFFFFE"/>
    <path d="M83.38,111.224 C83.176,111.38 82.9,111.464 82.624,111.464 C82.12,111.464 81.82,111.164 81.82,110.612 L81.82,107.984 L83.428,107.984 L83.428,106.544 L81.82,106.544 L81.82,104.972 L79.948,104.972 L79.948,106.544 L78.952,106.544 L78.952,107.984 L79.948,107.984 L79.948,110.636 C79.948,112.172 80.836,112.952 82.36,112.952 C82.936,112.952 83.5,112.82 83.884,112.544 z" fill="#FFFFFE"/>
    <path d="M87.808,112.952 C89.86,112.952 91.348,111.572 91.348,109.628 C91.348,107.684 89.86,106.304 87.808,106.304 C85.756,106.304 84.256,107.684 84.256,109.628 C84.256,111.572 85.756,112.952 87.808,112.952 z M87.808,111.416 C86.872,111.416 86.152,110.744 86.152,109.628 C86.152,108.512 86.872,107.84 87.808,107.84 C88.744,107.84 89.452,108.512 89.452,109.628 C89.452,110.744 88.744,111.416 87.808,111.416 z" fill="#FFFFFE"/>
    <path d="M95.716,112.952 C97.072,112.952 98.14,112.352 98.608,111.32 L97.156,110.528 C96.808,111.152 96.292,111.416 95.704,111.416 C94.756,111.416 94.012,110.756 94.012,109.628 C94.012,108.5 94.756,107.84 95.704,107.84 C96.292,107.84 96.808,108.116 97.156,108.728 L98.608,107.948 C98.14,106.892 97.072,106.304 95.716,106.304 C93.616,106.304 92.116,107.684 92.116,109.628 C92.116,111.572 93.616,112.952 95.716,112.952 z" fill="#FFFFFE"/>
    <path d="M104.452,112.856 L106.72,112.856 L103.792,109.136 L106.48,106.4 L104.248,106.4 L101.512,108.992 L101.512,103.952 L99.64,103.952 L99.64,112.856 L101.512,112.856 L101.512,111.212 L102.412,110.324 z" fill="#FFFFFE"/>
  </g>
</svg>
