<?xml version="1.0" encoding="UTF-8"?>
<!DOCTYPE svg PUBLIC "-//W3C//DTD SVG 1.1//EN" "http://www.w3.org/Graphics/SVG/1.1/DTD/svg11.dtd">
<svg version="1.1" xmlns="http://www.w3.org/2000/svg" xmlns:xlink="http://www.w3.org/1999/xlink" x="0" y="0" width="256" height="256" viewBox="0, 0, 256, 256">
  <g id="Layer_1">
    <g>
      <path d="M0.5,0.5 L256.5,0.5 L256.5,256.5 L0.5,256.5 L0.5,0.5 z" fill="#FF6666"/>
      <path d="M0.5,0.5 L256.5,0.5 L256.5,256.5 L0.5,256.5 L0.5,0.5 z" fill-opacity="0" stroke="#000000" stroke-width="1"/>
    </g>
    <path d="M151.087,148.145 L71.696,148.145 L51.778,82.256 L84.045,82.256 C87.05,94.566 98.17,103.73 111.392,103.73 C124.613,103.73 135.733,94.566 138.738,82.256 L171.006,82.256 L151.087,148.145 z M111.392,52.784 C123.963,52.784 134.19,63.012 134.19,75.582 C134.19,88.153 123.963,98.381 111.392,98.381 C98.821,98.381 88.593,88.153 88.593,75.582 C88.593,63.012 98.821,52.784 111.392,52.784 z M173.399,180.101 C173.399,184.54 169.795,188.15 165.366,188.15 C160.937,188.15 157.333,184.54 157.333,180.101 C157.333,175.83 160.67,172.327 164.869,172.07 C165.034,172.059 165.199,172.053 165.366,172.053 C165.426,172.053 165.485,172.056 165.546,172.057 C169.892,172.153 173.399,175.724 173.399,180.101 z M69.71,188.15 C65.28,188.15 61.677,184.54 61.677,180.101 C61.677,175.738 65.161,172.177 69.487,172.058 C69.561,172.056 69.635,172.053 69.71,172.053 C69.877,172.053 70.042,172.059 70.207,172.07 C74.406,172.327 77.744,175.83 77.744,180.101 C77.744,184.54 74.14,188.15 69.71,188.15 z M220.419,47.526 C220.06,46.094 218.607,45.221 217.175,45.582 L180.692,54.716 C179.779,54.944 179.054,55.635 178.781,56.536 L172.623,76.907 L139.507,76.907 C139.528,76.468 139.539,76.026 139.539,75.582 C139.539,60.062 126.912,47.435 111.392,47.435 C95.871,47.435 83.244,60.062 83.244,75.582 C83.244,76.026 83.256,76.468 83.276,76.907 L48.175,76.907 C47.328,76.907 46.532,77.308 46.027,77.987 C45.522,78.667 45.37,79.545 45.615,80.355 L67.15,151.593 C67.491,152.722 68.531,153.494 69.71,153.494 L151.268,153.494 L160.301,166.72 L70.376,166.72 C70.155,166.709 69.934,166.703 69.71,166.703 C62.331,166.703 56.327,172.714 56.327,180.101 C56.327,187.489 62.331,193.5 69.71,193.5 C77.09,193.5 83.093,187.489 83.093,180.101 C83.093,177.091 82.096,174.309 80.415,172.07 L154.662,172.07 C152.981,174.309 151.983,177.091 151.983,180.101 C151.983,187.489 157.987,193.5 165.366,193.5 C172.745,193.5 178.748,187.489 178.748,180.101 C178.748,173.206 173.519,167.513 166.822,166.784 L155.883,150.766 L183.462,59.536 L218.474,50.771 C219.907,50.412 220.778,48.959 220.419,47.526" fill="#FFFFFE"/>
    <path d="M99.247,77.748 L123.536,77.748 C124.732,77.748 125.702,76.778 125.702,75.582 C125.702,74.387 124.732,73.417 123.536,73.417 L99.247,73.417 C98.051,73.417 97.082,74.387 97.082,75.582 C97.082,76.778 98.051,77.748 99.247,77.748" fill="#FFFFFE"/>
    <path d="M57.44,225.712 L53.672,220.312 C55.856,219.376 57.128,217.528 57.128,215.008 C57.128,211.24 54.32,208.912 49.832,208.912 L42.56,208.912 L42.56,225.712 L46.448,225.712 L46.448,221.032 L49.832,221.032 L50.024,221.032 L53.264,225.712 z M53.192,215.008 C53.192,216.832 51.992,217.936 49.616,217.936 L46.448,217.936 L46.448,212.08 L49.616,212.08 C51.992,212.08 53.192,213.16 53.192,215.008 z" fill="#FFFFFE"/>
    <path d="M72.584,219.304 C72.584,215.152 69.656,212.608 65.864,212.608 C61.928,212.608 58.976,215.392 58.976,219.256 C58.976,223.096 61.88,225.904 66.344,225.904 C68.672,225.904 70.472,225.184 71.672,223.816 L69.68,221.656 C68.792,222.496 67.808,222.904 66.44,222.904 C64.472,222.904 63.104,221.92 62.744,220.312 L72.512,220.312 C72.536,220 72.584,219.592 72.584,219.304 z M65.888,215.44 C67.568,215.44 68.792,216.496 69.056,218.128 L62.696,218.128 C62.96,216.472 64.184,215.44 65.888,215.44 z" fill="#FFFFFE"/>
    <path d="M84.488,207.904 L84.488,214.168 C83.552,213.112 82.208,212.608 80.624,212.608 C76.976,212.608 74.168,215.2 74.168,219.256 C74.168,223.312 76.976,225.904 80.624,225.904 C82.352,225.904 83.72,225.352 84.656,224.224 L84.656,225.712 L88.232,225.712 L88.232,207.904 z M81.272,222.832 C79.4,222.832 77.96,221.488 77.96,219.256 C77.96,217.024 79.4,215.68 81.272,215.68 C83.12,215.68 84.56,217.024 84.56,219.256 C84.56,221.488 83.12,222.832 81.272,222.832 z" fill="#FFFFFE"/>
    <path d="M100.952,212.8 L100.952,219.184 C100.952,221.56 99.704,222.664 97.976,222.664 C96.32,222.664 95.36,221.704 95.36,219.544 L95.36,212.8 L91.616,212.8 L91.616,220.096 C91.616,224.08 93.896,225.904 97.136,225.904 C98.72,225.904 100.16,225.304 101.144,224.176 L101.144,225.712 L104.696,225.712 L104.696,212.8 z" fill="#FFFFFE"/>
    <path d="M114.416,225.904 C117.128,225.904 119.264,224.704 120.2,222.64 L117.296,221.056 C116.6,222.304 115.568,222.832 114.392,222.832 C112.496,222.832 111.008,221.512 111.008,219.256 C111.008,217 112.496,215.68 114.392,215.68 C115.568,215.68 116.6,216.232 117.296,217.456 L120.2,215.896 C119.264,213.784 117.128,212.608 114.416,212.608 C110.216,212.608 107.216,215.368 107.216,219.256 C107.216,223.144 110.216,225.904 114.416,225.904 z" fill="#FFFFFE"/>
    <path d="M134.84,219.304 C134.84,215.152 131.912,212.608 128.12,212.608 C124.184,212.608 121.232,215.392 121.232,219.256 C121.232,223.096 124.136,225.904 128.6,225.904 C130.928,225.904 132.728,225.184 133.928,223.816 L131.936,221.656 C131.048,222.496 130.064,222.904 128.696,222.904 C126.728,222.904 125.36,221.92 125,220.312 L134.768,220.312 C134.792,220 134.84,219.592 134.84,219.304 z M128.144,215.44 C129.824,215.44 131.048,216.496 131.312,218.128 L124.952,218.128 C125.216,216.472 126.44,215.44 128.144,215.44 z" fill="#FFFFFE"/>
    <path d="M149.912,226 C154.712,226 157.04,223.6 157.04,220.792 C157.04,214.624 147.272,216.76 147.272,213.664 C147.272,212.608 148.16,211.744 150.464,211.744 C151.952,211.744 153.56,212.176 155.12,213.064 L156.32,210.112 C154.76,209.128 152.6,208.624 150.488,208.624 C145.712,208.624 143.408,211 143.408,213.856 C143.408,220.096 153.176,217.936 153.176,221.08 C153.176,222.112 152.24,222.88 149.936,222.88 C147.92,222.88 145.808,222.16 144.392,221.128 L143.072,224.056 C144.56,225.208 147.248,226 149.912,226 z" fill="#FFFFFE"/>
    <path d="M166.76,222.448 C166.352,222.76 165.8,222.928 165.248,222.928 C164.24,222.928 163.64,222.328 163.64,221.224 L163.64,215.968 L166.856,215.968 L166.856,213.088 L163.64,213.088 L163.64,209.944 L159.896,209.944 L159.896,213.088 L157.904,213.088 L157.904,215.968 L159.896,215.968 L159.896,221.272 C159.896,224.344 161.672,225.904 164.72,225.904 C165.872,225.904 167,225.64 167.768,225.088 z" fill="#FFFFFE"/>
    <path d="M175.616,225.904 C179.72,225.904 182.696,223.144 182.696,219.256 C182.696,215.368 179.72,212.608 175.616,212.608 C171.512,212.608 168.512,215.368 168.512,219.256 C168.512,223.144 171.512,225.904 175.616,225.904 z M175.616,222.832 C173.744,222.832 172.304,221.488 172.304,219.256 C172.304,217.024 173.744,215.68 175.616,215.68 C177.488,215.68 178.904,217.024 178.904,219.256 C178.904,221.488 177.488,222.832 175.616,222.832 z" fill="#FFFFFE"/>
    <path d="M191.432,225.904 C194.144,225.904 196.28,224.704 197.216,222.64 L194.312,221.056 C193.616,222.304 192.584,222.832 191.408,222.832 C189.512,222.832 188.024,221.512 188.024,219.256 C188.024,217 189.512,215.68 191.408,215.68 C192.584,215.68 193.616,216.232 194.312,217.456 L197.216,215.896 C196.28,213.784 194.144,212.608 191.432,212.608 C187.232,212.608 184.232,215.368 184.232,219.256 C184.232,223.144 187.232,225.904 191.432,225.904 z" fill="#FFFFFE"/>
    <path d="M208.904,225.712 L213.44,225.712 L207.584,218.272 L212.96,212.8 L208.496,212.8 L203.024,217.984 L203.024,207.904 L199.28,207.904 L199.28,225.712 L203.024,225.712 L203.024,222.424 L204.824,220.648 z" fill="#FFFFFE"/>
  </g>
</svg>
